<?xml version="1.0" encoding="UTF-8" standalone="no"?>
<!-- Created with Inkscape (http://www.inkscape.org/) -->

<svg
   xmlns:dc="http://purl.org/dc/elements/1.1/"
   xmlns:cc="http://creativecommons.org/ns#"
   xmlns:rdf="http://www.w3.org/1999/02/22-rdf-syntax-ns#"
   xmlns:svg="http://www.w3.org/2000/svg"
   xmlns="http://www.w3.org/2000/svg"
   xmlns:sodipodi="http://sodipodi.sourceforge.net/DTD/sodipodi-0.dtd"
   xmlns:inkscape="http://www.inkscape.org/namespaces/inkscape"
   width="195.04004"
   height="171.63913"
   id="svg4261"
   version="1.1"
   inkscape:version="0.48.3.1 r9886"
   sodipodi:docname="New document 3">
  <defs
     id="defs4263">
    <marker
       inkscape:stockid="Arrow1Mend"
       orient="auto"
       refY="0"
       refX="0"
       id="Arrow1Mend"
       style="overflow:visible">
      <path
         id="path11282"
         d="M 0,0 5,-5 -12.5,0 5,5 0,0 z"
         style="fill-rule:evenodd;stroke:#000000;stroke-width:1pt"
         transform="matrix(-0.4,0,0,-0.4,-4,0)"
         inkscape:connector-curvature="0" />
    </marker>
  </defs>
  <sodipodi:namedview
     id="base"
     pagecolor="#ffffff"
     bordercolor="#666666"
     borderopacity="1.0"
     inkscape:pageopacity="0.0"
     inkscape:pageshadow="2"
     inkscape:zoom="1.4"
     inkscape:cx="189.39995"
     inkscape:cy="-47.867888"
     inkscape:document-units="px"
     inkscape:current-layer="layer1"
     showgrid="false"
     fit-margin-top="25"
     fit-margin-left="25"
     fit-margin-right="25"
     fit-margin-bottom="25"
     inkscape:window-width="954"
     inkscape:window-height="1060"
     inkscape:window-x="0"
     inkscape:window-y="14"
     inkscape:window-maximized="0" />
  <metadata
     id="metadata4266">
    <rdf:RDF>
      <cc:Work
         rdf:about="">
        <dc:format>image/svg+xml</dc:format>
        <dc:type
           rdf:resource="http://purl.org/dc/dcmitype/StillImage" />
        <dc:title></dc:title>
      </cc:Work>
    </rdf:RDF>
  </metadata>
  <g
     inkscape:label="Layer 1"
     inkscape:groupmode="layer"
     id="layer1"
     transform="translate(8.9485967,-23.68502)">
    <g
       id="g5438"
       transform="translate(-790.55669,-863.58207)">
      <g
         id="g7430">
        <path
           inkscape:connector-curvature="0"
           style="fill:#000000;fill-opacity:1;stroke:none"
           d="m 834.14909,934.73418 c -3.846,0 -7.708,-0.987 -9.534,-3.117 -0.054,0.236 -0.09,0.48 -0.09,0.737 v 3.877 c 0,3.435 4.988,4.998 9.625,4.998 4.637,0 9.625,-1.563 9.625,-4.998 v -3.877 c 0,-0.258 -0.036,-0.501 -0.09,-0.737 -1.826,2.13 -5.688,3.117 -9.536,3.117 z m 0,-7.495 c -3.846,0 -7.708,-0.987 -9.533,-3.117 -0.054,0.236 -0.091,0.479 -0.091,0.736 v 3.877 c 0,3.435 4.988,4.998 9.625,4.998 4.637,0 9.625,-1.563 9.625,-4.998 v -3.877 c 0,-0.257 -0.036,-0.501 -0.09,-0.737 -1.826,2.131 -5.688,3.118 -9.536,3.118 z m 10e-4,-14.877 c -4.637,0 -9.625,1.565 -9.625,5.001 v 3.876 c 0,3.435 4.988,4.998 9.625,4.998 4.637,0 9.625,-1.563 9.625,-4.998 v -3.876 c 0,-3.435 -4.988,-5.001 -9.625,-5.001 z m 0,8 c -4.211,0 -7.625,-1.343 -7.625,-3 0,-1.656 3.414,-3 7.625,-3 4.211,0 7.625,1.344 7.625,3 0,1.658 -3.414,3 -7.625,3 z"
           id="path5043-6" />
        <text
           xml:space="preserve"
           style="font-size:14px;font-style:normal;font-variant:normal;font-weight:normal;font-stretch:normal;line-height:125%;letter-spacing:0px;word-spacing:0px;fill:#000000;fill-opacity:1;stroke:none;font-family:A;-inkscape-font-specification:A"
           x="805.23407"
           y="957.45728"
           id="text5374"
           sodipodi:linespacing="125%"><tspan
             sodipodi:role="line"
             id="tspan5376"
             x="805.23407"
             y="957.45728">Memory</tspan></text>
      </g>
    </g>
    <g
       transform="translate(-794.55669,-863.58207)"
       id="g7435">
      <g
         transform="translate(0.70574951,0)"
         id="g5443">
        <path
           inkscape:connector-curvature="0"
           style="fill:#000000;fill-opacity:1;stroke:none"
           d="m 889.34788,934.63909 c -3.846,0 -7.708,-0.987 -9.534,-3.117 -0.054,0.236 -0.09,0.48 -0.09,0.737 v 3.877 c 0,3.435 4.988,4.998 9.625,4.998 4.637,0 9.625,-1.563 9.625,-4.998 v -3.877 c 0,-0.258 -0.036,-0.501 -0.09,-0.737 -1.826,2.13 -5.688,3.117 -9.536,3.117 z m 0,-7.495 c -3.846,0 -7.708,-0.987 -9.533,-3.117 -0.054,0.236 -0.091,0.479 -0.091,0.736 v 3.877 c 0,3.435 4.988,4.998 9.625,4.998 4.637,0 9.625,-1.563 9.625,-4.998 v -3.877 c 0,-0.257 -0.036,-0.501 -0.09,-0.737 -1.826,2.131 -5.688,3.118 -9.536,3.118 z m 10e-4,-14.877 c -4.637,0 -9.625,1.565 -9.625,5.001 v 3.876 c 0,3.435 4.988,4.998 9.625,4.998 4.637,0 9.625,-1.563 9.625,-4.998 v -3.876 c 0,-3.435 -4.988,-5.001 -9.625,-5.001 z m 0,8 c -4.211,0 -7.625,-1.343 -7.625,-3 0,-1.656 3.414,-3 7.625,-3 4.211,0 7.625,1.344 7.625,3 0,1.658 -3.414,3 -7.625,3 z"
           id="path5043-6-5" />
        <text
           xml:space="preserve"
           style="font-size:14px;font-style:normal;font-variant:normal;font-weight:normal;font-stretch:normal;line-height:125%;letter-spacing:0px;word-spacing:0px;fill:#000000;fill-opacity:1;stroke:none;font-family:A;-inkscape-font-specification:A"
           x="878.96851"
           y="957.36218"
           id="text5374-1"
           sodipodi:linespacing="125%"><tspan
             sodipodi:role="line"
             id="tspan5376-1"
             x="878.96851"
             y="957.36218">DB</tspan></text>
      </g>
    </g>
    <g
       transform="translate(-794.55669,-863.58207)"
       id="g7441">
      <g
         transform="translate(-4,0)"
         id="g5451">
        <g
           transform="translate(0.58495748,0)"
           id="g5448"
           style="fill:#000000;fill-opacity:1">
          <path
             id="path5043-6-5-3"
             d="m 945.37321,934.73418 c -3.846,0 -7.708,-0.987 -9.534,-3.117 -0.054,0.236 -0.09,0.48 -0.09,0.737 v 3.877 c 0,3.435 4.988,4.998 9.625,4.998 4.637,0 9.625,-1.563 9.625,-4.998 v -3.877 c 0,-0.258 -0.036,-0.501 -0.09,-0.737 -1.826,2.13 -5.688,3.117 -9.536,3.117 z m 0,-7.495 c -3.846,0 -7.708,-0.987 -9.533,-3.117 -0.054,0.236 -0.091,0.479 -0.091,0.736 v 3.877 c 0,3.435 4.988,4.998 9.625,4.998 4.637,0 9.625,-1.563 9.625,-4.998 v -3.877 c 0,-0.257 -0.036,-0.501 -0.09,-0.737 -1.826,2.131 -5.688,3.118 -9.536,3.118 z m 10e-4,-14.877 c -4.637,0 -9.625,1.565 -9.625,5.001 v 3.876 c 0,3.435 4.988,4.998 9.625,4.998 4.637,0 9.625,-1.563 9.625,-4.998 v -3.876 c 0,-3.435 -4.988,-5.001 -9.625,-5.001 z m 0,8 c -4.211,0 -7.625,-1.343 -7.625,-3 0,-1.656 3.414,-3 7.625,-3 4.211,0 7.625,1.344 7.625,3 0,1.658 -3.414,3 -7.625,3 z"
             style="fill:#000000;fill-opacity:1;stroke:none"
             inkscape:connector-curvature="0" />
        </g>
        <text
           xml:space="preserve"
           style="font-size:14px;font-style:normal;font-variant:normal;font-weight:normal;font-stretch:normal;line-height:125%;letter-spacing:0px;word-spacing:0px;fill:#000000;fill-opacity:1;stroke:none;font-family:A;-inkscape-font-specification:A"
           x="931.48407"
           y="957.45728"
           id="text5374-1-5"
           sodipodi:linespacing="125%"><tspan
             sodipodi:role="line"
             id="tspan5376-1-3"
             x="931.48407"
             y="957.45728">CSV</tspan></text>
      </g>
    </g>
    <g
       transform="translate(25.443313,97.417899)"
       id="g5594-6-7-2">
      <rect
         ry="0.00028353182"
         y="32.362183"
         x="40"
         height="10"
         width="10"
         id="rect5260-9-8-95"
         style="color:#000000;fill:#ffffff;fill-opacity:1;fill-rule:nonzero;stroke:#000000;stroke-width:1.09000003;stroke-linecap:butt;stroke-linejoin:miter;stroke-miterlimit:4;stroke-opacity:1;stroke-dasharray:none;stroke-dashoffset:0;marker:none;visibility:visible;display:inline;overflow:visible;enable-background:accumulate" />
      <rect
         ry="0.00028353182"
         y="32.362183"
         x="50"
         height="10"
         width="10"
         id="rect5260-1-1-2-7"
         style="color:#000000;fill:#ffffff;fill-opacity:1;fill-rule:nonzero;stroke:#000000;stroke-width:1.09000003;stroke-linecap:butt;stroke-linejoin:miter;stroke-miterlimit:4;stroke-opacity:1;stroke-dasharray:none;stroke-dashoffset:0;marker:none;visibility:visible;display:inline;overflow:visible;enable-background:accumulate" />
      <rect
         ry="0.00028353182"
         y="32.362183"
         x="60"
         height="10"
         width="10"
         id="rect5260-1-3-00-6-9"
         style="color:#000000;fill:#ffffff;fill-opacity:1;fill-rule:nonzero;stroke:#000000;stroke-width:1.09000003;stroke-linecap:butt;stroke-linejoin:miter;stroke-miterlimit:4;stroke-opacity:1;stroke-dasharray:none;stroke-dashoffset:0;marker:none;visibility:visible;display:inline;overflow:visible;enable-background:accumulate" />
      <rect
         ry="0.00028353182"
         y="32.362183"
         x="70"
         height="10"
         width="10"
         id="rect5260-1-3-8-58-1-608"
         style="color:#000000;fill:#ffffff;fill-opacity:1;fill-rule:nonzero;stroke:#000000;stroke-width:1.09000003;stroke-linecap:butt;stroke-linejoin:miter;stroke-miterlimit:4;stroke-opacity:1;stroke-dasharray:none;stroke-dashoffset:0;marker:none;visibility:visible;display:inline;overflow:visible;enable-background:accumulate" />
      <rect
         ry="0.00028353182"
         y="32.362183"
         x="80"
         height="10"
         width="10"
         id="rect5260-1-3-8-5-5-0-5"
         style="color:#000000;fill:#ffffff;fill-opacity:1;fill-rule:nonzero;stroke:#000000;stroke-width:1.09000003;stroke-linecap:butt;stroke-linejoin:miter;stroke-miterlimit:4;stroke-opacity:1;stroke-dasharray:none;stroke-dashoffset:0;marker:none;visibility:visible;display:inline;overflow:visible;enable-background:accumulate" />
      <rect
         ry="0.00028353182"
         y="32.362183"
         x="90"
         height="10"
         width="10"
         id="rect5260-1-3-8-5-4-79-0-0"
         style="color:#000000;fill:#ffffff;fill-opacity:1;fill-rule:nonzero;stroke:#000000;stroke-width:1.09000003;stroke-linecap:butt;stroke-linejoin:miter;stroke-miterlimit:4;stroke-opacity:1;stroke-dasharray:none;stroke-dashoffset:0;marker:none;visibility:visible;display:inline;overflow:visible;enable-background:accumulate" />
      <rect
         ry="0.00028353182"
         y="42.362183"
         x="40"
         height="10"
         width="10"
         id="rect5260-4-69-5-5"
         style="color:#000000;fill:#ffffff;fill-opacity:1;fill-rule:nonzero;stroke:#000000;stroke-width:1.09000003;stroke-linecap:butt;stroke-linejoin:miter;stroke-miterlimit:4;stroke-opacity:1;stroke-dasharray:none;stroke-dashoffset:0;marker:none;visibility:visible;display:inline;overflow:visible;enable-background:accumulate" />
      <rect
         ry="0.00028353182"
         y="42.362183"
         x="50"
         height="10"
         width="10"
         id="rect5260-1-5-6-0-4"
         style="color:#000000;fill:#ffffff;fill-opacity:1;fill-rule:nonzero;stroke:#000000;stroke-width:1.09000003;stroke-linecap:butt;stroke-linejoin:miter;stroke-miterlimit:4;stroke-opacity:1;stroke-dasharray:none;stroke-dashoffset:0;marker:none;visibility:visible;display:inline;overflow:visible;enable-background:accumulate" />
      <rect
         ry="0.00028353182"
         y="42.362183"
         x="60"
         height="10"
         width="10"
         id="rect5260-1-3-4-2-3-65"
         style="color:#000000;fill:#ffffff;fill-opacity:1;fill-rule:nonzero;stroke:#000000;stroke-width:1.09000003;stroke-linecap:butt;stroke-linejoin:miter;stroke-miterlimit:4;stroke-opacity:1;stroke-dasharray:none;stroke-dashoffset:0;marker:none;visibility:visible;display:inline;overflow:visible;enable-background:accumulate" />
      <rect
         ry="0.00028353182"
         y="42.362183"
         x="70"
         height="10"
         width="10"
         id="rect5260-1-3-8-2-8-4-0"
         style="color:#000000;fill:#ffffff;fill-opacity:1;fill-rule:nonzero;stroke:#000000;stroke-width:1.09000003;stroke-linecap:butt;stroke-linejoin:miter;stroke-miterlimit:4;stroke-opacity:1;stroke-dasharray:none;stroke-dashoffset:0;marker:none;visibility:visible;display:inline;overflow:visible;enable-background:accumulate" />
      <rect
         ry="0.00028353182"
         y="42.362183"
         x="80"
         height="10"
         width="10"
         id="rect5260-1-3-8-5-2-8-7-77"
         style="color:#000000;fill:#ffffff;fill-opacity:1;fill-rule:nonzero;stroke:#000000;stroke-width:1.09000003;stroke-linecap:butt;stroke-linejoin:miter;stroke-miterlimit:4;stroke-opacity:1;stroke-dasharray:none;stroke-dashoffset:0;marker:none;visibility:visible;display:inline;overflow:visible;enable-background:accumulate" />
      <rect
         ry="0.00028353182"
         y="42.362183"
         x="90"
         height="10"
         width="10"
         id="rect5260-1-3-8-5-4-3-4-0-45"
         style="color:#000000;fill:#ffffff;fill-opacity:1;fill-rule:nonzero;stroke:#000000;stroke-width:1.09000003;stroke-linecap:butt;stroke-linejoin:miter;stroke-miterlimit:4;stroke-opacity:1;stroke-dasharray:none;stroke-dashoffset:0;marker:none;visibility:visible;display:inline;overflow:visible;enable-background:accumulate" />
      <rect
         ry="0.00028353182"
         y="52.362183"
         x="40"
         height="10"
         width="10"
         id="rect5260-4-6-3-2-0"
         style="color:#000000;fill:#ffffff;fill-opacity:1;fill-rule:nonzero;stroke:#000000;stroke-width:1.09000003;stroke-linecap:butt;stroke-linejoin:miter;stroke-miterlimit:4;stroke-opacity:1;stroke-dasharray:none;stroke-dashoffset:0;marker:none;visibility:visible;display:inline;overflow:visible;enable-background:accumulate" />
      <rect
         ry="0.00028353182"
         y="52.362183"
         x="50"
         height="10"
         width="10"
         id="rect5260-1-5-9-2-5-29"
         style="color:#000000;fill:#ffffff;fill-opacity:1;fill-rule:nonzero;stroke:#000000;stroke-width:1.09000003;stroke-linecap:butt;stroke-linejoin:miter;stroke-miterlimit:4;stroke-opacity:1;stroke-dasharray:none;stroke-dashoffset:0;marker:none;visibility:visible;display:inline;overflow:visible;enable-background:accumulate" />
      <rect
         ry="0.00028353182"
         y="52.362183"
         x="60"
         height="10"
         width="10"
         id="rect5260-1-3-4-1-6-2-5"
         style="color:#000000;fill:#ffffff;fill-opacity:1;fill-rule:nonzero;stroke:#000000;stroke-width:1.09000003;stroke-linecap:butt;stroke-linejoin:miter;stroke-miterlimit:4;stroke-opacity:1;stroke-dasharray:none;stroke-dashoffset:0;marker:none;visibility:visible;display:inline;overflow:visible;enable-background:accumulate" />
      <rect
         ry="0.00028353182"
         y="52.362183"
         x="70"
         height="10"
         width="10"
         id="rect5260-1-3-8-2-4-8-5-7"
         style="color:#000000;fill:#ffffff;fill-opacity:1;fill-rule:nonzero;stroke:#000000;stroke-width:1.09000003;stroke-linecap:butt;stroke-linejoin:miter;stroke-miterlimit:4;stroke-opacity:1;stroke-dasharray:none;stroke-dashoffset:0;marker:none;visibility:visible;display:inline;overflow:visible;enable-background:accumulate" />
      <rect
         ry="0.00028353182"
         y="52.362183"
         x="80"
         height="10"
         width="10"
         id="rect5260-1-3-8-5-2-3-21-7-4"
         style="color:#000000;fill:#ffffff;fill-opacity:1;fill-rule:nonzero;stroke:#000000;stroke-width:1.09000003;stroke-linecap:butt;stroke-linejoin:miter;stroke-miterlimit:4;stroke-opacity:1;stroke-dasharray:none;stroke-dashoffset:0;marker:none;visibility:visible;display:inline;overflow:visible;enable-background:accumulate" />
      <rect
         ry="0.00028353182"
         y="52.362183"
         x="90"
         height="10"
         width="10"
         id="rect5260-1-3-8-5-4-3-6-8-0-2"
         style="color:#000000;fill:#ffffff;fill-opacity:1;fill-rule:nonzero;stroke:#000000;stroke-width:1.09000003;stroke-linecap:butt;stroke-linejoin:miter;stroke-miterlimit:4;stroke-opacity:1;stroke-dasharray:none;stroke-dashoffset:0;marker:none;visibility:visible;display:inline;overflow:visible;enable-background:accumulate" />
      <rect
         ry="0.00028353182"
         y="62.362183"
         x="40"
         height="10"
         width="10"
         id="rect5260-4-6-7-3-6-2"
         style="color:#000000;fill:#ffffff;fill-opacity:1;fill-rule:nonzero;stroke:#000000;stroke-width:1.09000003;stroke-linecap:butt;stroke-linejoin:miter;stroke-miterlimit:4;stroke-opacity:1;stroke-dasharray:none;stroke-dashoffset:0;marker:none;visibility:visible;display:inline;overflow:visible;enable-background:accumulate" />
      <rect
         ry="0.00028353182"
         y="62.362183"
         x="50"
         height="10"
         width="10"
         id="rect5260-1-5-9-0-6-4-19"
         style="color:#000000;fill:#ffffff;fill-opacity:1;fill-rule:nonzero;stroke:#000000;stroke-width:1.09000003;stroke-linecap:butt;stroke-linejoin:miter;stroke-miterlimit:4;stroke-opacity:1;stroke-dasharray:none;stroke-dashoffset:0;marker:none;visibility:visible;display:inline;overflow:visible;enable-background:accumulate" />
      <rect
         ry="0.00028353182"
         y="62.362183"
         x="60"
         height="10"
         width="10"
         id="rect5260-1-3-4-1-8-5-7-6"
         style="color:#000000;fill:#ffffff;fill-opacity:1;fill-rule:nonzero;stroke:#000000;stroke-width:1.09000003;stroke-linecap:butt;stroke-linejoin:miter;stroke-miterlimit:4;stroke-opacity:1;stroke-dasharray:none;stroke-dashoffset:0;marker:none;visibility:visible;display:inline;overflow:visible;enable-background:accumulate" />
      <rect
         ry="0.00028353182"
         y="62.362183"
         x="70"
         height="10"
         width="10"
         id="rect5260-1-3-8-2-4-1-0-6-11"
         style="color:#000000;fill:#ffffff;fill-opacity:1;fill-rule:nonzero;stroke:#000000;stroke-width:1.09000003;stroke-linecap:butt;stroke-linejoin:miter;stroke-miterlimit:4;stroke-opacity:1;stroke-dasharray:none;stroke-dashoffset:0;marker:none;visibility:visible;display:inline;overflow:visible;enable-background:accumulate" />
      <rect
         ry="0.00028353182"
         y="62.362183"
         x="80"
         height="10"
         width="10"
         id="rect5260-1-3-8-5-2-3-6-8-1-7"
         style="color:#000000;fill:#ffffff;fill-opacity:1;fill-rule:nonzero;stroke:#000000;stroke-width:1.09000003;stroke-linecap:butt;stroke-linejoin:miter;stroke-miterlimit:4;stroke-opacity:1;stroke-dasharray:none;stroke-dashoffset:0;marker:none;visibility:visible;display:inline;overflow:visible;enable-background:accumulate" />
      <rect
         ry="0.00028353182"
         y="62.362183"
         x="90"
         height="10"
         width="10"
         id="rect5260-1-3-8-5-4-3-6-4-1-4-80"
         style="color:#000000;fill:#ffffff;fill-opacity:1;fill-rule:nonzero;stroke:#000000;stroke-width:1.09000003;stroke-linecap:butt;stroke-linejoin:miter;stroke-miterlimit:4;stroke-opacity:1;stroke-dasharray:none;stroke-dashoffset:0;marker:none;visibility:visible;display:inline;overflow:visible;enable-background:accumulate" />
    </g>
    <path
       style="fill:none;stroke:#000000;stroke-width:1px;stroke-linecap:butt;stroke-linejoin:miter;stroke-opacity:1;marker-end:url(#Arrow1Mend)"
       d="m 95.443313,103.78008 0,20"
       id="path13688-3"
       inkscape:connector-curvature="0" />
  </g>
</svg>
