<?xml version="1.0" encoding="utf-8"?>
<!-- Generator: Adobe Illustrator 16.0.0, SVG Export Plug-In . SVG Version: 6.00 Build 0)  -->
<!DOCTYPE svg PUBLIC "-//W3C//DTD SVG 1.1//EN" "http://www.w3.org/Graphics/SVG/1.1/DTD/svg11.dtd">
<svg version="1.1"
	 id="svg2" xmlns:rdf="http://www.w3.org/1999/02/22-rdf-syntax-ns#" xmlns:svg="http://www.w3.org/2000/svg" xmlns:inkscape="http://www.inkscape.org/namespaces/inkscape" xmlns:dc="http://purl.org/dc/elements/1.1/" xmlns:cc="http://creativecommons.org/ns#" xmlns:sodipodi="http://sodipodi.sourceforge.net/DTD/sodipodi-0.dtd" sodipodi:docname="frontbackends-without-blaze.svg" inkscape:version="0.48.4 r9939"
	 xmlns="http://www.w3.org/2000/svg" xmlns:xlink="http://www.w3.org/1999/xlink" x="0px" y="0px" width="1499.992px"
	 height="845px" viewBox="-379.933 41.094 1499.992 845" enable-background="new -379.933 41.094 1499.992 845"
	 xml:space="preserve">
<linearGradient id="SVGID_1_" gradientUnits="userSpaceOnUse" x1="370.564" y1="886.5938" x2="370.5639" y2="40.5942">
	<stop  offset="0" style="stop-color:#FFFFFF"/>
	<stop  offset="1" style="stop-color:#E5EEFA"/>
</linearGradient>
<rect x="-378.937" y="40.594" fill="url(#SVGID_1_)" width="1499" height="846"/>
<sodipodi:namedview  id="base" inkscape:cy="246.68626" showgrid="false" inkscape:zoom="0.7" fit-margin-left="0" borderopacity="1.0" fit-margin-top="0" inkscape:cx="609.47501" pagecolor="#ffffff" bordercolor="#666666" fit-margin-right="0" inkscape:pageshadow="2" inkscape:window-x="2880" inkscape:window-maximized="1" inkscape:window-y="41" inkscape:document-units="px" inkscape:window-width="1680" inkscape:current-layer="layer1" fit-margin-bottom="0" inkscape:window-height="1026" inkscape:pageopacity="0.0">
	
		<inkscape:grid  id="grid3800" type="xygrid" enabled="true" visible="true" empspacing="5" originy="8.3571867px" originx="3.1243305px" snapvisiblegridlinesonly="true">
		</inkscape:grid>
</sodipodi:namedview>
<g id="layer1" transform="translate(3.1243305,-354.53222)" inkscape:label="Layer 1" inkscape:groupmode="layer" display="none">
	
		<rect id="rect2985" x="52.124" y="601.222" display="inline" fill="#B4E6E6" stroke="#000000" stroke-width="0.9503" width="291.479" height="70.025"/>
	
		<rect id="rect2985-8" x="52.124" y="671.247" display="inline" fill="#E6E6E6" stroke="#000000" stroke-width="0.9503" width="291.479" height="70.025"/>
	
		<rect id="rect2985-1" x="402.122" y="601.22" display="inline" fill="#B4E6E6" stroke="#000000" stroke-width="0.9474" width="289.674" height="70.026"/>
	
		<rect id="rect2985-8-2" x="402.122" y="671.247" display="inline" fill="#E6E6E6" stroke="#000000" stroke-width="0.9474" width="289.674" height="70.026"/>
	
		<rect id="rect2985-85" x="-244.622" y="761.248" display="inline" fill="#B4E6E6" stroke="#000000" stroke-width="1.0027" width="324.761" height="69.973"/>
	
		<rect id="rect2985-8-6" x="-210.262" y="823.464" display="inline" fill="#E6E6E6" stroke="#000000" stroke-width="0.7258" width="169.475" height="70.25"/>
	
		<rect id="rect2985-8-6-6" x="-80.262" y="863.464" display="inline" fill="#E6E6E6" stroke="#000000" stroke-width="0.7258" width="169.475" height="70.25"/>
	
		<rect id="rect2985-8-6-8" x="-250.262" y="883.464" display="inline" fill="#E6E6E6" stroke="#000000" stroke-width="0.7258" width="169.475" height="70.25"/>
	
		<rect id="rect2985-8-6-5" x="-78.833" y="923.464" display="inline" fill="#E6E6E6" stroke="#000000" stroke-width="0.7258" width="169.474" height="70.25"/>
	
		<rect id="rect2985-8-6-3" x="-231.69" y="944.893" display="inline" fill="#E6E6E6" stroke="#000000" stroke-width="0.7258" width="169.475" height="70.25"/>
	
		<rect id="rect2985-8-6-5-9" x="169.739" y="843.464" display="inline" fill="#E6E6E6" stroke="#000000" stroke-width="0.7258" width="169.474" height="70.25"/>
	
		<rect id="rect2985-8-6-5-9-4" x="299.739" y="883.464" display="inline" fill="#E6E6E6" stroke="#000000" stroke-width="0.7258" width="169.474" height="70.25"/>
	
		<rect id="rect4080-3" x="299.419" y="873.114" display="inline" fill="#B4E6E6" stroke="#000000" stroke-width="0.3" width="170" height="10"/>
	
		<rect id="rect2985-8-6-5-9-9" x="359.739" y="823.464" display="inline" fill="#E6E6E6" stroke="#000000" stroke-width="0.7258" width="169.474" height="70.25"/>
	
		<rect id="rect2985-8-6-5-9-92" x="199.739" y="943.464" display="inline" fill="#E6E6E6" stroke="#000000" stroke-width="0.7258" width="169.474" height="70.25"/>
	
		<rect id="rect2985-8-6-5-9-92-8" x="399.739" y="943.464" display="inline" fill="#E6E6E6" stroke="#000000" stroke-width="0.7258" width="169.474" height="70.25"/>
	
		<rect id="rect4080" x="169.52" y="832.862" display="inline" fill="#B4E6E6" stroke="#000000" stroke-width="0.3" width="170" height="10"/>
	
		<rect id="rect4080-4" x="358.965" y="812.862" display="inline" fill="#B4E6E6" stroke="#000000" stroke-width="0.3" width="170" height="10"/>
	
		<rect id="rect4080-8" x="399.52" y="932.862" display="inline" fill="#B4E6E6" stroke="#000000" stroke-width="0.3" width="170" height="10"/>
	
		<rect id="rect4080-0" x="199.318" y="933.114" display="inline" fill="#B4E6E6" stroke="#000000" stroke-width="0.3" width="170" height="10"/>
	
		<rect id="rect2985-8-6-5-9-9-2" x="614.739" y="838.464" display="inline" fill="#E6E6E6" stroke="#000000" stroke-width="0.7258" width="169.474" height="70.25"/>
	
		<rect id="rect4080-4-1" x="613.91" y="833.868" display="inline" fill="#B4E6E6" stroke="#000000" stroke-width="0.1909" width="170.109" height="4.049"/>
	
		<rect id="rect2985-8-6-5-9-9-6" x="789.739" y="838.464" display="inline" fill="#E6E6E6" stroke="#000000" stroke-width="0.7258" width="169.474" height="70.25"/>
	
		<rect id="rect4080-4-9" x="788.916" y="833.369" display="inline" fill="#B4E6E6" stroke="#000000" stroke-width="0.2022" width="170.098" height="4.542"/>
	
		<rect id="rect2985-8-6-5-9-9-9" x="614.739" y="923.464" display="inline" fill="#E6E6E6" stroke="#000000" stroke-width="0.7258" width="169.474" height="70.25"/>
	
		<rect id="rect4080-4-93" x="613.965" y="912.862" display="inline" fill="#B4E6E6" stroke="#000000" stroke-width="0.3" width="170" height="10"/>
	
		<rect id="rect2985-8-6-5-9-9-90" x="789.739" y="923.464" display="inline" fill="#E6E6E6" stroke="#000000" stroke-width="0.7258" width="169.474" height="70.25"/>
	
		<rect id="rect2985-8-6-5-9-92-8-9" x="475.536" y="1080.379" display="inline" fill="#E6E6E6" stroke="#000000" stroke-width="0.8804" width="217.854" height="80.404"/>
	
		<rect id="rect4080-8-7" x="475.379" y="1048.699" display="inline" fill="#B4E6E6" stroke="#000000" stroke-width="0.5974" width="218.283" height="30.881"/>
	
		<rect id="rect2985-8-6-5-9-92-8-0" x="34.188" y="1066.485" display="inline" fill="#E6E6E6" stroke="#000000" stroke-width="1.0532" width="240.575" height="104.207"/>
	
		<rect id="rect2985-5" x="197.071" y="467.669" display="inline" fill="#B4E6E6" stroke="#000000" stroke-width="1.2333" width="339.767" height="101.171"/>
	
		<rect id="rect2985-8-6-3-1" x="-92.504" y="970.38" display="inline" fill="#E6E6E6" stroke="#000000" stroke-width="0.7258" width="169.474" height="70.25"/>
</g>
<g>
	
		<image overflow="visible" opacity="0.2" width="266" height="94" xlink:href="2113945C0B033947.png"  transform="matrix(1 0 0 1 97.0635 717.5938)">
	</image>
	<g>
		<path fill="#FFFFFF" d="M356.102,797.85c0,2.631-2.133,4.764-4.764,4.764H108.789c-2.631,0-4.764-2.133-4.764-4.764v-70.473
			c0-2.631,2.133-4.764,4.764-4.764h242.549c2.631,0,4.764,2.133,4.764,4.764V797.85z"/>
		<path fill="none" stroke="#999999" stroke-miterlimit="10" d="M356.102,797.85c0,2.631-2.133,4.764-4.764,4.764H108.789
			c-2.631,0-4.764-2.133-4.764-4.764v-70.473c0-2.631,2.133-4.764,4.764-4.764h242.549c2.631,0,4.764,2.133,4.764,4.764V797.85z"/>
	</g>
</g>
<g>
	
		<image overflow="visible" opacity="0.2" width="266" height="94" xlink:href="2113945C0B033948.png"  transform="matrix(1 0 0 1 377.0635 717.5938)">
	</image>
	<g>
		<path fill="#FFFFFF" d="M636.102,797.85c0,2.631-2.133,4.764-4.764,4.764H388.789c-2.631,0-4.764-2.133-4.764-4.764v-70.473
			c0-2.631,2.133-4.764,4.764-4.764h242.549c2.631,0,4.764,2.133,4.764,4.764V797.85z"/>
		<path fill="none" stroke="#999999" stroke-miterlimit="10" d="M636.102,797.85c0,2.631-2.133,4.764-4.764,4.764H388.789
			c-2.631,0-4.764-2.133-4.764-4.764v-70.473c0-2.631,2.133-4.764,4.764-4.764h242.549c2.631,0,4.764,2.133,4.764,4.764V797.85z"/>
	</g>
</g>
<g>
	
		<image overflow="visible" opacity="0.2" width="332" height="84" xlink:href="2113945C0B033949.png"  transform="matrix(1 0 0 1 204.0635 121.5938)">
	</image>
	<g>
		<path fill="#AAD4F9" d="M528.825,190.974c0,3.313-2.687,6-6,6H217.302c-3.313,0-6-2.687-6-6v-58.771c0-3.313,2.687-6,6-6h305.522
			c3.313,0,6,2.687,6,6V190.974z"/>
		<path fill="none" stroke="#999999" stroke-miterlimit="10" d="M528.825,190.974c0,3.313-2.687,6-6,6H217.302c-3.313,0-6-2.687-6-6
			v-58.771c0-3.313,2.687-6,6-6h305.522c3.313,0,6,2.687,6,6V190.974z"/>
	</g>
</g>
<g>
	
		<image overflow="visible" opacity="0.2" width="401" height="299" xlink:href="2113945C0B03394A.png"  transform="matrix(1 0 0 1 -276.9365 396.5938)">
	</image>
	<g>
		<path fill="#E5EEF8" d="M116.825,680.594c0,3.313-2.687,6-6,6h-374.522c-3.313,0-6-2.687-6-6V407.945c0-3.313,2.687-6,6-6h374.522
			c3.313,0,6,2.687,6,6V680.594z"/>
		<path fill="none" stroke="#999999" stroke-miterlimit="10" d="M116.825,680.594c0,3.313-2.687,6-6,6h-374.522
			c-3.313,0-6-2.687-6-6V407.945c0-3.313,2.687-6,6-6h374.522c3.313,0,6,2.687,6,6V680.594z"/>
	</g>
</g>
<path fill="#AAD4F9" stroke="#999999" stroke-miterlimit="10" d="M110.825,401.945h-374.522c-3.313,0-6,2.687-6,6v1.119v5.333
	v59.243h386.522v-59.243v-5.333v-1.119C116.825,404.632,114.138,401.945,110.825,401.945z"/>
<g>
	
		<image overflow="visible" opacity="0.2" width="280" height="128" xlink:href="2113945C0B03394B.png"  transform="matrix(1 0 0 1 90.0635 239.5938)">
	</image>
	<g>
		<path fill="#FFFFFF" d="M363.325,352.947c0,3.312-2.687,5.998-6,5.998H102.802c-3.313,0-6-2.687-6-5.998V250.942
			c0-3.312,2.687-5.997,6-5.997h254.522c3.313,0,6,2.685,6,5.997V352.947z"/>
		<path fill="none" stroke="#999999" stroke-miterlimit="10" d="M363.325,352.947c0,3.312-2.687,5.998-6,5.998H102.802
			c-3.313,0-6-2.687-6-5.998V250.942c0-3.312,2.687-5.997,6-5.997h254.522c3.313,0,6,2.685,6,5.997V352.947z"/>
	</g>
</g>
<path fill="#AAD4F9" stroke="#999999" stroke-miterlimit="10" d="M357.325,244.945H102.802c-3.313,0-6,2.609-6,5.827v1.087v5.179
	v44.908h266.522v-44.908v-5.179v-1.087C363.325,247.554,360.638,244.945,357.325,244.945z"/>
<g>
	
		<image overflow="visible" opacity="0.2" width="280" height="128" xlink:href="2113945C0B03394C.png"  transform="matrix(1 0 0 1 370.0635 239.5938)">
	</image>
	<g>
		<path fill="#FFFFFF" d="M643.325,352.947c0,3.312-2.688,5.998-6,5.998H382.802c-3.313,0-6-2.687-6-5.998V250.942
			c0-3.312,2.687-5.997,6-5.997h254.523c3.312,0,6,2.685,6,5.997V352.947z"/>
		<path fill="none" stroke="#999999" stroke-miterlimit="10" d="M643.325,352.947c0,3.312-2.688,5.998-6,5.998H382.802
			c-3.313,0-6-2.687-6-5.998V250.942c0-3.312,2.687-5.997,6-5.997h254.523c3.312,0,6,2.685,6,5.997V352.947z"/>
	</g>
</g>
<path fill="#AAD4F9" stroke="#999999" stroke-miterlimit="10" d="M637.325,244.945H382.802c-3.313,0-6,2.609-6,5.827v1.087v5.179
	v44.908h266.523v-44.908v-5.179v-1.087C643.325,247.554,640.638,244.945,637.325,244.945z"/>
<path fill="#AAD4F9" stroke="#999999" stroke-miterlimit="10" d="M630.103,722.532H390.025c-3.313,0-6,2.687-6,6v1.119v5.333v2.243
	h252.077v-2.243v-5.333v-1.119C636.103,725.219,633.415,722.532,630.103,722.532z"/>
<g>
	
		<image overflow="visible" opacity="0.2" width="400" height="227" xlink:href="2113945C0B03394D.png"  transform="matrix(1 0 0 1 170.0635 468.5938)">
	</image>
	<g>
		<path fill="#E5EEF8" d="M563.325,680.594c0,3.313-2.687,6-6,6H182.802c-3.313,0-6-2.687-6-6V479.641c0-3.313,2.687-6,6-6h374.522
			c3.313,0,6,2.687,6,6V680.594z"/>
		<path fill="none" stroke="#999999" stroke-miterlimit="10" d="M563.325,680.594c0,3.313-2.687,6-6,6H182.802c-3.313,0-6-2.687-6-6
			V479.641c0-3.313,2.687-6,6-6h374.522c3.313,0,6,2.687,6,6V680.594z"/>
	</g>
</g>
<g>
	
		<image overflow="visible" opacity="0.2" width="400" height="227" xlink:href="2113945C0B03394E.png"  transform="matrix(1 0 0 1 616.0635 468.5938)">
	</image>
	<g>
		<path fill="#E5EEF8" d="M1009.325,680.594c0,3.313-2.688,6-6,6H628.802c-3.313,0-6-2.687-6-6V479.641c0-3.313,2.687-6,6-6h374.523
			c3.312,0,6,2.687,6,6V680.594z"/>
		<path fill="none" stroke="#999999" stroke-miterlimit="10" d="M1009.325,680.594c0,3.313-2.688,6-6,6H628.802
			c-3.313,0-6-2.687-6-6V479.641c0-3.313,2.687-6,6-6h374.523c3.312,0,6,2.687,6,6V680.594z"/>
	</g>
</g>
<g>
	
		<image overflow="visible" opacity="0.2" width="184" height="74" xlink:href="2113945C0B03394F.png"  transform="matrix(1 0 0 1 -264.9365 475.5938)">
	</image>
	<g>
		<path fill="#FFFFFF" d="M-88.375,536.758c0,1.973-2.007,3.572-4.483,3.572h-161.033c-2.476,0-4.483-1.6-4.483-3.572v-52.855
			c0-1.973,2.007-3.572,4.483-3.572h161.033c2.476,0,4.483,1.6,4.483,3.572V536.758z"/>
		<path fill="none" stroke="#999999" stroke-miterlimit="10" d="M-88.375,536.758c0,1.973-2.007,3.572-4.483,3.572h-161.033
			c-2.476,0-4.483-1.6-4.483-3.572v-52.855c0-1.973,2.007-3.572,4.483-3.572h161.033c2.476,0,4.483,1.6,4.483,3.572V536.758z"/>
	</g>
</g>
<g>
	
		<image overflow="visible" opacity="0.2" width="184" height="74" xlink:href="C7D4714D97775EF1.png"  transform="matrix(1 0 0 1 180.0635 475.5938)">
	</image>
	<g>
		<path fill="#FFFFFF" d="M356.802,536.758c0,1.973-2.007,3.572-4.483,3.572H191.286c-2.476,0-4.483-1.6-4.483-3.572v-52.855
			c0-1.973,2.007-3.572,4.483-3.572h161.033c2.476,0,4.483,1.6,4.483,3.572V536.758z"/>
		<path fill="none" stroke="#999999" stroke-miterlimit="10" d="M356.802,536.758c0,1.973-2.007,3.572-4.483,3.572H191.286
			c-2.476,0-4.483-1.6-4.483-3.572v-52.855c0-1.973,2.007-3.572,4.483-3.572h161.033c2.476,0,4.483,1.6,4.483,3.572V536.758z"/>
	</g>
</g>
<g>
	
		<image overflow="visible" opacity="0.2" width="192" height="74" xlink:href="C7D4714D97775EF4.png"  transform="matrix(1 0 0 1 368.0635 475.5938)">
	</image>
	<g>
		<path fill="#FFFFFF" d="M553.325,536.758c0,1.973-2.007,3.572-4.483,3.572H379.808c-2.476,0-4.483-1.6-4.483-3.572v-52.855
			c0-1.973,2.007-3.572,4.483-3.572h169.033c2.476,0,4.483,1.6,4.483,3.572V536.758z"/>
		<path fill="none" stroke="#999999" stroke-miterlimit="10" d="M553.325,536.758c0,1.973-2.007,3.572-4.483,3.572H379.808
			c-2.476,0-4.483-1.6-4.483-3.572v-52.855c0-1.973,2.007-3.572,4.483-3.572h169.033c2.476,0,4.483,1.6,4.483,3.572V536.758z"/>
	</g>
</g>
<g>
	
		<image overflow="visible" opacity="0.2" width="192" height="74" xlink:href="C7D4714D97775EF0.png"  transform="matrix(1 0 0 1 224.0635 551.5938)">
	</image>
	<g>
		<path fill="#FFFFFF" d="M409.063,612.758c0,1.973-2.007,3.572-4.483,3.572H235.547c-2.476,0-4.483-1.6-4.483-3.572v-52.855
			c0-1.973,2.007-3.572,4.483-3.572H404.58c2.476,0,4.483,1.6,4.483,3.572V612.758z"/>
		<path fill="none" stroke="#999999" stroke-miterlimit="10" d="M409.063,612.758c0,1.973-2.007,3.572-4.483,3.572H235.547
			c-2.476,0-4.483-1.6-4.483-3.572v-52.855c0-1.973,2.007-3.572,4.483-3.572H404.58c2.476,0,4.483,1.6,4.483,3.572V612.758z"/>
	</g>
</g>
<g>
	
		<image overflow="visible" opacity="0.2" width="184" height="74" xlink:href="C7D4714D97775EE6.png"  transform="matrix(1 0 0 1 -240.9365 545.5938)">
	</image>
	<g>
		<path fill="#FFFFFF" d="M-64.375,606.758c0,1.973-2.007,3.572-4.483,3.572h-161.033c-2.476,0-4.483-1.6-4.483-3.572v-52.855
			c0-1.973,2.007-3.572,4.483-3.572h161.033c2.476,0,4.483,1.6,4.483,3.572V606.758z"/>
		<path fill="none" stroke="#999999" stroke-miterlimit="10" d="M-64.375,606.758c0,1.973-2.007,3.572-4.483,3.572h-161.033
			c-2.476,0-4.483-1.6-4.483-3.572v-52.855c0-1.973,2.007-3.572,4.483-3.572h161.033c2.476,0,4.483,1.6,4.483,3.572V606.758z"/>
	</g>
</g>
<g>
	
		<image overflow="visible" opacity="0.2" width="150" height="62" xlink:href="C7D4714D97775EE7.png"  transform="matrix(1 0 0 1 -48.9365 551.5938)">
	</image>
	<g>
		<path fill="#FFFFFF" d="M94.053,601.473c0,1.578-1.606,2.857-3.587,2.857H-38.36c-1.981,0-3.587-1.279-3.587-2.857v-42.285
			c0-1.578,1.606-2.857,3.587-2.857H90.466c1.981,0,3.587,1.279,3.587,2.857V601.473z"/>
		<path fill="none" stroke="#999999" stroke-miterlimit="10" d="M94.053,601.473c0,1.578-1.606,2.857-3.587,2.857H-38.36
			c-1.981,0-3.587-1.279-3.587-2.857v-42.285c0-1.578,1.606-2.857,3.587-2.857H90.466c1.981,0,3.587,1.279,3.587,2.857V601.473z"/>
	</g>
</g>
<g>
	
		<image overflow="visible" opacity="0.2" width="220" height="62" xlink:href="C7D4714D97775EE8.png"  transform="matrix(1 0 0 1 181.0635 626.5938)">
	</image>
	<g>
		<path fill="#FFFFFF" d="M394.541,676.473c0,1.578-1.606,2.857-3.587,2.857H192.128c-1.981,0-3.587-1.279-3.587-2.857v-42.285
			c0-1.578,1.606-2.857,3.587-2.857h198.826c1.981,0,3.587,1.279,3.587,2.857V676.473z"/>
		<path fill="none" stroke="#999999" stroke-miterlimit="10" d="M394.541,676.473c0,1.578-1.606,2.857-3.587,2.857H192.128
			c-1.981,0-3.587-1.279-3.587-2.857v-42.285c0-1.578,1.606-2.857,3.587-2.857h198.826c1.981,0,3.587,1.279,3.587,2.857V676.473z"/>
	</g>
</g>
<g>
	
		<image overflow="visible" opacity="0.2" width="178" height="84" xlink:href="C7D4714D97775EE9.png"  transform="matrix(1 0 0 1 828.0635 551.5938)">
	</image>
	<g>
		<path fill="#FFFFFF" d="M999.351,622.758c0,1.973-2.008,3.572-4.484,3.572H839.833c-2.476,0-4.482-1.6-4.482-3.572v-62.855
			c0-1.973,2.007-3.572,4.482-3.572h155.033c2.477,0,4.484,1.6,4.484,3.572V622.758z"/>
		<path fill="none" stroke="#999999" stroke-miterlimit="10" d="M999.351,622.758c0,1.973-2.008,3.572-4.484,3.572H839.833
			c-2.476,0-4.482-1.6-4.482-3.572v-62.855c0-1.973,2.007-3.572,4.482-3.572h155.033c2.477,0,4.484,1.6,4.484,3.572V622.758z"/>
	</g>
</g>
<g>
	
		<image overflow="visible" opacity="0.2" width="178" height="84" xlink:href="C7D4714D97775EEA.png"  transform="matrix(1 0 0 1 639.0635 604.5938)">
	</image>
	<g>
		<path fill="#FFFFFF" d="M809.803,675.758c0,1.973-2.008,3.572-4.484,3.572H650.285c-2.476,0-4.482-1.6-4.482-3.572v-62.855
			c0-1.973,2.007-3.572,4.482-3.572h155.033c2.477,0,4.484,1.6,4.484,3.572V675.758z"/>
		<path fill="none" stroke="#999999" stroke-miterlimit="10" d="M809.803,675.758c0,1.973-2.008,3.572-4.484,3.572H650.285
			c-2.476,0-4.482-1.6-4.482-3.572v-62.855c0-1.973,2.007-3.572,4.482-3.572h155.033c2.477,0,4.484,1.6,4.484,3.572V675.758z"/>
	</g>
</g>
<g>
	
		<image overflow="visible" opacity="0.2" width="200" height="62" xlink:href="C7D4714D97775EEB.png"  transform="matrix(1 0 0 1 626.0635 539.5938)">
	</image>
	<g>
		<path fill="#FFFFFF" d="M818.803,589.473c0,1.578-1.605,2.857-3.586,2.857H636.391c-1.981,0-3.588-1.279-3.588-2.857v-42.285
			c0-1.578,1.606-2.857,3.588-2.857h178.826c1.98,0,3.586,1.279,3.586,2.857V589.473z"/>
		<path fill="none" stroke="#999999" stroke-miterlimit="10" d="M818.803,589.473c0,1.578-1.605,2.857-3.586,2.857H636.391
			c-1.981,0-3.588-1.279-3.588-2.857v-42.285c0-1.578,1.606-2.857,3.588-2.857h178.826c1.98,0,3.586,1.279,3.586,2.857V589.473z"/>
	</g>
</g>
<g>
	
		<image overflow="visible" opacity="0.2" width="250" height="62" xlink:href="C7D4714D97775EEC.png"  transform="matrix(1 0 0 1 757.0635 475.5938)">
	</image>
	<g>
		<path fill="#FFFFFF" d="M1000.351,525.783c0,1.578-1.605,2.857-3.586,2.857H767.938c-1.981,0-3.588-1.279-3.588-2.857v-42.285
			c0-1.578,1.606-2.857,3.588-2.857h228.826c1.98,0,3.586,1.279,3.586,2.857V525.783z"/>
		<path fill="none" stroke="#999999" stroke-miterlimit="10" d="M1000.351,525.783c0,1.578-1.605,2.857-3.586,2.857H767.938
			c-1.981,0-3.588-1.279-3.588-2.857v-42.285c0-1.578,1.606-2.857,3.588-2.857h228.826c1.98,0,3.586,1.279,3.586,2.857V525.783z"/>
	</g>
</g>
<g>
	
		<image overflow="visible" opacity="0.2" width="184" height="74" xlink:href="C7D4714D97775EED.png"  transform="matrix(1 0 0 1 -263.9365 613.5938)">
	</image>
	<g>
		<path fill="#FFFFFF" d="M-87.375,674.758c0,1.973-2.007,3.572-4.483,3.572h-161.033c-2.476,0-4.483-1.6-4.483-3.572v-52.855
			c0-1.973,2.007-3.572,4.483-3.572h161.033c2.476,0,4.483,1.6,4.483,3.572V674.758z"/>
		<path fill="none" stroke="#999999" stroke-miterlimit="10" d="M-87.375,674.758c0,1.973-2.007,3.572-4.483,3.572h-161.033
			c-2.476,0-4.483-1.6-4.483-3.572v-52.855c0-1.973,2.007-3.572,4.483-3.572h161.033c2.476,0,4.483,1.6,4.483,3.572V674.758z"/>
	</g>
</g>
<g>
	
		<image overflow="visible" opacity="0.2" width="184" height="74" xlink:href="C7D4714D97775EEF.png"  transform="matrix(1 0 0 1 -70.9365 613.5938)">
	</image>
	<g>
		<path fill="#FFFFFF" d="M105.625,674.758c0,1.973-2.007,3.572-4.483,3.572H-59.892c-2.476,0-4.483-1.6-4.483-3.572v-52.855
			c0-1.973,2.007-3.572,4.483-3.572h161.033c2.476,0,4.483,1.6,4.483,3.572V674.758z"/>
		<path fill="none" stroke="#999999" stroke-miterlimit="10" d="M105.625,674.758c0,1.973-2.007,3.572-4.483,3.572H-59.892
			c-2.476,0-4.483-1.6-4.483-3.572v-52.855c0-1.973,2.007-3.572,4.483-3.572h161.033c2.476,0,4.483,1.6,4.483,3.572V674.758z"/>
	</g>
</g>
<g>
	
		<image overflow="visible" opacity="0.2" width="184" height="74" xlink:href="C7D4714D97775EEE.png"  transform="matrix(1 0 0 1 -71.9365 475.5938)">
	</image>
	<g>
		<path fill="#FFFFFF" d="M104.625,536.758c0,1.973-2.007,3.572-4.483,3.572H-60.892c-2.476,0-4.483-1.6-4.483-3.572v-52.855
			c0-1.973,2.007-3.572,4.483-3.572h161.033c2.476,0,4.483,1.6,4.483,3.572V536.758z"/>
		<path fill="none" stroke="#999999" stroke-miterlimit="10" d="M104.625,536.758c0,1.973-2.007,3.572-4.483,3.572H-60.892
			c-2.476,0-4.483-1.6-4.483-3.572v-52.855c0-1.973,2.007-3.572,4.483-3.572h161.033c2.476,0,4.483,1.6,4.483,3.572V536.758z"/>
	</g>
</g>
<path fill="#AAD4F9" stroke="#999999" stroke-miterlimit="10" d="M352.756,480.33H190.849c-2.235,0-4.046,1.646-4.046,3.675v0.686
	v3.267v1.373h170v-1.373v-3.267v-0.686C356.802,481.976,354.99,480.33,352.756,480.33z"/>
<path fill="#AAD4F9" stroke="#999999" stroke-miterlimit="10" d="M549.088,480.33H379.562c-2.34,0-4.237,1.646-4.237,3.675v0.686
	v3.267v1.373h178v-1.373v-3.267v-0.686C553.325,481.976,551.427,480.33,549.088,480.33z"/>
<path fill="#AAD4F9" stroke="#999999" stroke-miterlimit="10" d="M805.899,608.83H649.707c-2.156,0-3.904,1.28-3.904,2.858v0.533
	v2.54v1.068h164v-1.068v-2.54v-0.533C809.803,610.11,808.055,608.83,805.899,608.83z"/>
<path fill="#AAD4F9" stroke="#999999" stroke-miterlimit="10" d="M404.827,556.33H235.3c-2.34,0-4.237,1.646-4.237,3.675v0.686
	v3.267v1.373h178v-1.373v-3.267v-0.686C409.063,557.976,407.166,556.33,404.827,556.33z"/>
<path fill="#AAD4F9" stroke="#999999" stroke-miterlimit="10" d="M389.638,631.33H193.444c-2.708,0-4.903,1.646-4.903,3.675v0.686
	v3.267v1.373h206v-1.373v-3.267v-0.686C394.541,632.976,392.345,631.33,389.638,631.33z"/>
<g>
	<text transform="matrix(1 0 0 1 126.2432 285.3301)" font-family="'Gotham-Book'" font-size="38">numpy.py</text>
	<text transform="matrix(1 0 0 1 139.2383 342)" font-family="'Gotham-Book'" font-size="38">numpy.c</text>
	<text transform="matrix(1 0 0 1 413.165 285.3301)" font-family="'Gotham-Book'" font-size="38">pandas.py</text>
	<text transform="matrix(1 0 0 1 402.2593 342)" font-family="'Gotham-Book'" font-size="38">pandas.pyx</text>
	<text transform="matrix(1 0 0 1 -9.9321 271)" enable-background="new    "><tspan x="0" y="0" fill="#6B6B6B" font-family="'Gotham-Book'" font-size="18">High-level</tspan><tspan x="0" y="20" fill="#6B6B6B" font-family="'Gotham-Book'" font-size="18">interface</tspan></text>
	<text transform="matrix(1 0 0 1 -9.9331 328)" enable-background="new    "><tspan x="0" y="0" fill="#6B6B6B" font-family="'Gotham-Book'" font-size="18">Low-level</tspan><tspan x="0" y="20" fill="#6B6B6B" font-family="'Gotham-Book'" font-size="18">fast code</tspan></text>
	<text transform="matrix(1 0 0 1 -116.5073 452.3301)" font-family="'Gotham-Book'" font-size="38">SQL</text>
	<text transform="matrix(1 0 0 1 -236.5874 522.3301)" font-family="'Gotham-Book'" font-size="38">Impala</text>
	<text transform="matrix(1 0 0 1 -35.1963 589.3301)" font-family="'Gotham-Book'" font-size="28">Postgres</text>
	<text transform="matrix(1 0 0 1 -211.3667 592.3301)" font-family="'Gotham-Book'" font-size="38">SQLite</text>
	<text transform="matrix(1 0 0 1 -45.7388 523.3301)" font-family="'Gotham-Book'" font-size="38">MySQL</text>
	<text transform="matrix(1 0 0 1 -215.6416 660.7588)" font-family="'Gotham-Book'" font-size="38">Hive</text>
	<g>
		<text transform="matrix(1 0 0 1 210.7563 523.3301)" font-family="'Gotham-Book'" font-size="38">HBase</text>
	</g>
	<text transform="matrix(1 0 0 1 384.2212 522.3301)" font-family="'Gotham-Book'" font-size="32">MongoDB</text>
	<text transform="matrix(1 0 0 1 212.5332 665.3301)" font-family="'Gotham-Book'" font-size="28">CouchBase</text>
	<g>
		<text transform="matrix(1 0 0 1 255.6323 596.3301)" font-family="'Gotham-Book'" font-size="32">ReThink</text>
	</g>
	<g>
		
			<image overflow="visible" opacity="0.2" width="142" height="74" xlink:href="C7D4714D97775EE3.png"  transform="matrix(1 0 0 1 418.0635 582.5938)">
		</image>
		<g>
			<path fill="#FFFFFF" d="M553.325,643.754c0,1.973-2.007,3.572-4.483,3.572H429.808c-2.476,0-4.483-1.6-4.483-3.572v-52.855
				c0-1.973,2.007-3.572,4.483-3.572h119.033c2.476,0,4.483,1.6,4.483,3.572V643.754z"/>
			<path fill="none" stroke="#999999" stroke-miterlimit="10" d="M553.325,643.754c0,1.973-2.007,3.572-4.483,3.572H429.808
				c-2.476,0-4.483-1.6-4.483-3.572v-52.855c0-1.973,2.007-3.572,4.483-3.572h119.033c2.476,0,4.483,1.6,4.483,3.572V643.754z"/>
		</g>
	</g>
	<text transform="matrix(1 0 0 1 449.4644 613.3301)" enable-background="new    "><tspan x="0" y="0" font-family="'Gotham-Book'" font-size="25">Elastic</tspan><tspan x="-1.938" y="26" font-family="'Gotham-Book'" font-size="25">Search</tspan></text>
	<text transform="matrix(1 0 0 1 648.7656 579.3281)" font-family="'Gotham-Book'" font-size="25">HDF5/BColz</text>
	<text transform="matrix(1 0 0 1 787.001 513.3301)" font-family="'Gotham-Book'" font-size="25">PETSc/Trillinos</text>
	<text transform="matrix(1 0 0 1 678.999 640.8271)" enable-background="new    "><tspan x="0" y="0" font-family="'Gotham-Book'" font-size="28">SciDB/</tspan><tspan x="-14.279" y="28" font-family="'Gotham-Book'" font-size="28">Distarray</tspan></text>
	<text transform="matrix(1 0 0 1 888.0264 587.3301)" enable-background="new    "><tspan x="0" y="0" font-family="'Gotham-Book'" font-size="28">HPC</tspan><tspan x="-33.739" y="28" font-family="'Gotham-Book'" font-size="28">Research</tspan></text>
	<text transform="matrix(1 0 0 1 445.7817 776.2275)" font-family="'Gotham-Book'" font-size="45">Spark</text>
	<text transform="matrix(1 0 0 1 148.8848 775.2275)" font-family="'Gotham-Book'" font-size="40">Hadoop</text>
	<text transform="matrix(1 0 0 1 302.2646 176.6357)" font-family="'Gotham-Book'" font-size="50">Blaze</text>
	<g enable-background="new    ">
		<text transform="matrix(1 0 0 1 302.709 452.3301)" font-family="'Gotham-Book'" font-size="38">NoSQL</text>
	</g>
	<g enable-background="new    ">
		<text transform="matrix(1 0 0 1 625.1162 452.3301)" font-family="'Gotham-Book'" font-size="38">Numeric Computing</text>
	</g>
	<text transform="matrix(1 0 0 1 -44.7007 660.7578)" font-family="'Gotham-Book'" font-size="38">Oracle</text>
</g>
<path fill="#AAD4F9" stroke="#999999" stroke-miterlimit="10" d="M814.375,544.33H637.23c-2.444,0-4.428,0.914-4.428,2.042v0.381
	v1.814v0.763h186v-0.763v-1.814v-0.381C818.803,545.244,816.82,544.33,814.375,544.33z"/>
<path fill="#AAD4F9" stroke="#999999" stroke-miterlimit="10" d="M548.897,586.83H429.752c-2.444,0-4.428,0.914-4.428,2.042v0.381
	v1.814v0.763h128v-0.763v-1.814v-0.381C553.325,587.744,551.342,586.83,548.897,586.83z"/>
<path fill="#AAD4F9" stroke="#999999" stroke-miterlimit="10" d="M994.732,480.33H769.969c-3.102,0-5.618,0.914-5.618,2.042v0.381
	v1.814v0.763h236v-0.763v-1.814v-0.381C1000.351,481.244,997.835,480.33,994.732,480.33z"/>
</svg>
